<?xml version="1.0" encoding="UTF-8"?>
<svg id="_图层_2" data-name="图层 2" xmlns="http://www.w3.org/2000/svg" viewBox="0 0 218.61 218.61">
  <defs>
    <style>
      .cls-1 {
        fill: #e7e7e7;
      }

      .cls-2 {
        fill: #0163e1;
      }
    </style>
  </defs>
  <g id="_图层_1-2" data-name="图层 1">
    <g>
      <path class="cls-2" d="m55.63,111.28c-3.51-10.04-11.49-18.15-21.95-21.65l-12.74-4.26h80.4c19.85-7.47,43.6-13.02,72.56-17.39l19.6-3.48,13.7-3.85C189.3,24.7,152.19,0,109.3,0,48.94,0,0,48.94,0,109.3c0,20.41,2.93,39.59,17.2,58.79,8.15-17.84,23.42-40.44,38.43-56.82Z"/>
      <path class="cls-2" d="m182.4,72.57c-60.11,22.53-114.4,58.22-158.92,104.43,20.02,25.34,51.02,41.61,85.82,41.61,60.37,0,109.3-48.94,109.3-109.3,0-16.36-3.6-31.88-10.04-45.81l-26.17,9.08Z"/>
      <path class="cls-1" d="m182.4,72.57l26.17-9.08c-.44-.95-.9-1.9-1.36-2.84l-13.7,3.85-17.66,1.02c-29.79,2.42-54.8,8.05-86.19,19.85H20.94l9,3.87c9.89,3.88,22.18,12,25.69,22.04-16.77,16.69-30.7,39.55-38.43,56.82,2.46,4.13,5.32,7.62,8.29,11.37,48.68-53.33,96.8-84.37,156.91-106.89Z"/>
    </g>
  </g>
</svg>