<?xml version="1.0" encoding="UTF-8"?>
<svg id="_图层_2" data-name="图层 2" xmlns="http://www.w3.org/2000/svg" viewBox="0 0 307.34 218.61">
  <g id="_图层_1-2" data-name="图层 1">
    <path d="m307.34,46.55l-50.19,14.1c.47.94.92,1.89,1.36,2.84l48.83-16.94Z"/>
    <path d="m62.72,170.47l-12.62,25.69H0l22.99,4.72c7.55,1.55,14.28,5.8,18.93,11.96l20.16-23.6c3.71-4.16,7.5-8.23,11.36-12.24-2.97-3.76-5.69-7.71-8.15-11.84-.86,1.74-1.72,3.51-2.56,5.31Z"/>
    <path d="m105.58,111.28c-3.51-10.04-11.49-18.15-21.95-21.65l-12.74-4.26h80.4c19.85-7.47,43.6-13.02,72.56-17.39l19.6-3.48,13.7-3.85C239.25,24.7,202.14,0,159.25,0,98.89,0,49.95,48.94,49.95,109.3c0,20.41,5.6,39.51,15.34,55.85,11.13-22.5,23.81-40.04,40.29-53.88Z"/>
    <path d="m232.35,72.57c-60.11,22.53-114.4,58.22-158.92,104.43,20.02,25.34,51.02,41.61,85.82,41.61,60.37,0,109.3-48.94,109.3-109.3,0-16.36-3.6-31.88-10.04-45.81l-26.17,9.08Z"/>
  </g>
</svg>