<?xml version="1.0" encoding="UTF-8"?>
<svg id="_图层_2" data-name="图层 2" xmlns="http://www.w3.org/2000/svg" viewBox="0 0 964.69 291">
  <defs>
    <style>
      .cls-1 {
        fill: none;
      }

      .cls-2 {
        fill: #fbfbfb;
      }

      .cls-3 {
        fill: #0666ff;
      }

      .cls-4 {
        letter-spacing: -.03em;
      }

      .cls-4, .cls-5 {
        font-family: Roboto-Regular, Roboto;
      }

      .cls-6 {
        font-size: 100.48px;
      }

      .cls-5, .cls-7 {
        letter-spacing: -.02em;
      }

      .cls-7, .cls-8 {
        font-family: Roboto-Medium, Roboto;
        font-weight: 500;
      }

      .cls-8 {
        letter-spacing: -.05em;
      }
    </style>
  </defs>
  <g id="_图层_1-2" data-name="图层 1">
    <g>
      <rect class="cls-1" width="964.69" height="291"/>
      <text class="cls-6" transform="translate(267.21 173.95)"><tspan class="cls-8" x="0" y="0">A</tspan><tspan class="cls-7" x="59.12" y="0">pache</tspan><tspan class="cls-5" x="320.89" y="0"> </tspan><tspan class="cls-4" x="343.45" y="0">P</tspan><tspan class="cls-5" x="403.99" y="0">aimon</tspan></text>
      <g>
        <path class="cls-3" d="m133.12,47.92c-53.89,0-97.58,43.69-97.58,97.58,0,3.71.21,7.37.62,10.97,2.58-.91,5.01-2.39,7.08-4.46,16.42-16.55,42.45-42.72,44.44-44.32,7.12-5.72,15.79-9.57,25.29-10.83,2.23-.3,4.5-.45,6.81-.45,15.12,0,28.72,6.54,38.1,16.95,2.07,2.29,3.94,4.77,5.57,7.41.47.75.91,1.52,1.34,2.29l.04.06s0,.01,0,.02c.59,1.07,1.52,3.06,1.9,3.86.11.24.24.47.4.68,1.79,2.45,4.19,3.78,7.54,3.78,2.29,0,4.39-.84,6-2.24.32-.28.62-.58.9-.9,1.4-1.6,2.24-3.7,2.24-6,0-5.48-3.61-6.95-3.61-6.95-5.74-3-4.64-6.99-2.7-8.65,1.44-1.44,2.15-1.64,3.79,0l30.7,30.7c2,2,.58,5.42-2.24,5.42h-30.69c-1.72,0-3.37.68-4.58,1.9l-31.24,31.24c-1.29,1.29-3.37,1.29-4.66,0-1.29-1.29-1.29-3.37,0-4.66,0,0,10.7-10.7,11.28-11.51,1.34-1.86,2-4.26,1.6-6.81-.62-3.93-3.77-7.02-7.71-7.57-2.87-.4-5.54.54-7.46,2.28-.17.16-18.01,18.24-24.86,25.1-1.74,1.74-1.74,4.56,0,6.3l25.21,27.41c.99,1.23.99,3.22,0,4.44-.99,1.23-3.67.89-4.66-.34l-33.34-31.69c-1.74-1.74-1.74-4.57,0-6.31,4.04-4.03,10.55-10.53,10.78-10.79,1.75-1.99,2.81-4.6,2.81-7.46,0-6.26-6.79-11.53-6.79-11.53l-12.85-12.85c-3.92-3.92-10.29-3.92-14.21,0l-28.84,28.84c-3.44,3.44-7.56,5.67-11.91,6.79,9.27,44.24,48.5,77.47,95.5,77.47,53.89,0,97.58-43.69,97.58-97.58s-43.69-97.58-97.58-97.58Z"/>
        <path class="cls-2" d="m78.37,129.98c3.92-3.92,10.29-3.92,14.21,0l12.85,12.85s6.79,5.27,6.79,11.53c0,2.86-1.06,5.47-2.81,7.46-.22.26-6.73,6.76-10.78,10.79-1.75,1.74-1.75,4.57,0,6.31l33.34,31.69c.99,1.23,3.67,1.56,4.66.34.99-1.23.99-3.22,0-4.44l-25.21-27.41c-1.74-1.74-1.74-4.56,0-6.3,6.85-6.86,24.69-24.94,24.86-25.1,1.92-1.74,4.59-2.68,7.46-2.28,3.94.55,7.09,3.64,7.71,7.57.4,2.55-.26,4.94-1.6,6.81-.58.81-11.28,11.51-11.28,11.51-1.29,1.29-1.29,3.37,0,4.66,1.29,1.29,3.37,1.29,4.66,0l31.24-31.24c1.22-1.22,2.86-1.9,4.58-1.9h30.69c2.83,0,4.24-3.42,2.24-5.42l-30.7-30.7c-1.64-1.64-2.34-1.44-3.79,0-1.94,1.66-3.04,5.65,2.7,8.65,0,0,3.61,1.48,3.61,6.95,0,2.29-.85,4.4-2.24,6-.28.32-.58.62-.9.9-1.61,1.4-3.7,2.24-6,2.24-3.35,0-5.75-1.33-7.54-3.78-.16-.21-.28-.44-.4-.68-.38-.81-1.31-2.79-1.9-3.86,0,0,0-.01,0-.02l-.04-.06c-.43-.78-.87-1.54-1.34-2.29-1.64-2.63-3.5-5.12-5.57-7.41-9.39-10.41-22.98-16.95-38.1-16.95-2.31,0-4.58.15-6.81.45-9.49,1.26-18.17,5.11-25.29,10.83-1.99,1.6-28.02,27.77-44.44,44.32-2.06,2.08-4.49,3.55-7.08,4.46.35,3.09.83,6.14,1.46,9.14,4.34-1.12,8.47-3.35,11.91-6.79l28.84-28.84Z"/>
      </g>
    </g>
  </g>
</svg>